<svg xmlns="http://www.w3.org/2000/svg" width="200" height="45" viewBox="0 0 200 45">
    <g data-name="그룹 462397">
        <path data-name="패스 885" d="M10.268 43.69a5.482 5.482 0 0 1-3.753-9.479l31.214-29.3A14.623 14.623 0 0 1 62.36 15.57v22.638a5.482 5.482 0 0 1-10.964 0V15.57a3.659 3.659 0 0 0-6.163-2.67L14.019 42.2a5.465 5.465 0 0 1-3.751 1.484" transform="translate(-4.411 .207)" style="fill:#003b7e"/>
        <path data-name="패스 886" d="M87.367 43.76a5.482 5.482 0 0 1-5.483-5.482V7.354a5.483 5.483 0 0 1 10.965 0v30.925a5.483 5.483 0 0 1-5.483 5.482" transform="translate(-10.119 .136)" style="fill:#003b7e"/>
        <path data-name="패스 887" d="M127.2 44.47a22.235 22.235 0 1 1 13.958-39.54 5.482 5.482 0 0 1-6.888 8.53 11.146 11.146 0 0 0-7.074-2.5 11.272 11.272 0 0 0 0 22.543 11.135 11.135 0 0 0 7.071-2.5 5.482 5.482 0 1 1 6.888 8.531A22.292 22.292 0 0 1 127.2 44.47" transform="translate(-11.827 .275)" style="fill:#003b7e"/>
        <path data-name="패스 888" d="M209.884 43.69a5.467 5.467 0 0 1-3.751-1.484L174.919 12.9a3.659 3.659 0 0 0-6.163 2.668v22.64a5.482 5.482 0 0 1-10.964 0V15.57a14.622 14.622 0 0 1 24.63-10.66l31.214 29.3a5.482 5.482 0 0 1-3.753 9.479" transform="translate(-15.74 .207)" style="fill:#003b7e"/>
    </g>
</svg>
