<svg xmlns="http://www.w3.org/2000/svg" width="244" height="56" viewBox="0 0 244 56">
    <g data-name="그룹 462494">
        <path data-name="패스 843935" d="M11.5 53.3a6.713 6.713 0 0 1-4.6-11.612L45.127 5.806A17.907 17.907 0 0 1 75.29 18.861v27.722a6.713 6.713 0 0 1-13.427 0V18.861a4.48 4.48 0 0 0-7.547-3.268L16.092 51.478A6.692 6.692 0 0 1 11.5 53.3" transform="translate(-4.785 .547)" style="fill:#fff"/>
        <path data-name="패스 843936" d="M88.6 53.168a6.714 6.714 0 0 1-6.714-6.713V8.585a6.714 6.714 0 0 1 13.428 0v37.87a6.714 6.714 0 0 1-6.714 6.713" transform="translate(5.539 .674)" style="fill:#fff"/>
        <path data-name="패스 843937" d="M132.188 54.457a27.229 27.229 0 1 1 17.1-48.42 6.713 6.713 0 0 1-8.435 10.446 13.649 13.649 0 0 0-8.663-3.057 13.8 13.8 0 0 0 0 27.606 13.636 13.636 0 0 0 8.658-3.056 6.714 6.714 0 1 1 8.435 10.447 27.3 27.3 0 0 1-17.094 6.035" transform="translate(8.626 .424)" style="fill:#fff"/>
        <path data-name="패스 843938" d="M221.582 53.3a6.694 6.694 0 0 1-4.593-1.818l-38.224-35.887a4.48 4.48 0 0 0-7.547 3.267v27.721a6.713 6.713 0 0 1-13.427 0V18.861a17.906 17.906 0 0 1 30.163-13.054l38.224 35.882a6.713 6.713 0 0 1-4.6 11.608" transform="translate(15.703 .547)" style="fill:#fff"/>
        <path data-name="사각형 341275" style="fill:none;opacity:.5" d="M0 0h244v56H0z"/>
    </g>
</svg>
