<svg xmlns="http://www.w3.org/2000/svg" xmlns:xlink="http://www.w3.org/1999/xlink" width="560" height="212" viewBox="0 0 560 212">
    <defs>
        <clipPath id="clip-path">
            <rect id="사각형_127" data-name="사각형 127" width="546.002" height="211.528" fill="none"/>
        </clipPath>
    </defs>
    <g id="로고" transform="translate(1.691)">
        <rect id="사각형_340922" data-name="사각형 340922" width="560" height="212" transform="translate(-1.691)" fill="#fff" opacity="0"/>
        <g id="그룹_142" data-name="그룹 142" transform="translate(8.454)" clip-path="url(#clip-path)">
            <path id="패스_187" data-name="패스 187" d="M21.615,113.383A14.353,14.353,0,0,1,11.79,88.564l81.723-76.72a38.287,38.287,0,0,1,64.492,27.915V99.03a14.354,14.354,0,0,1-28.709,0V39.759a9.577,9.577,0,0,0-16.135-6.985L31.437,109.5a14.316,14.316,0,0,1-9.822,3.887" transform="translate(4.342 0.831)" fill="#003577"/>
            <path id="패스_188" data-name="패스 188" d="M138.574,112.514A14.353,14.353,0,0,1,124.22,98.161V17.194a14.354,14.354,0,0,1,28.707,0V98.161a14.353,14.353,0,0,1-14.353,14.353" transform="translate(74.299 1.699)" fill="#003577"/>
            <path id="패스_189" data-name="패스 189" d="M217.44,116.432A58.216,58.216,0,1,1,254,12.906,14.354,14.354,0,1,1,235.963,35.24,29.17,29.17,0,0,0,217.44,28.7a29.512,29.512,0,0,0,0,59.024,29.16,29.16,0,0,0,18.515-6.533,14.353,14.353,0,1,1,18.035,22.334,58.354,58.354,0,0,1-36.549,12.9" transform="translate(95.238)" fill="#003577"/>
            <path id="패스_190" data-name="패스 190" d="M375.76,113.383a14.319,14.319,0,0,1-9.822-3.887l-81.723-76.72a9.58,9.58,0,0,0-16.138,6.982V99.03a14.354,14.354,0,0,1-28.707,0V39.759a38.285,38.285,0,0,1,64.492-27.911l81.725,76.717a14.354,14.354,0,0,1-9.827,24.819" transform="translate(143.174 0.831)" fill="#003577"/>
            <rect id="사각형_98" data-name="사각형 98" width="8.064" height="31.325" transform="translate(382.173 153.62)" fill="#46443f"/>
            <rect id="사각형_99" data-name="사각형 99" width="10.629" height="5.178" transform="translate(386.964 166.598)" fill="#46443f"/>
            <rect id="사각형_100" data-name="사각형 100" width="8.064" height="8.083" transform="translate(359.349 149.361)" fill="#46443f"/>
            <rect id="사각형_101" data-name="사각형 101" width="29.132" height="5.178" transform="translate(348.82 155.229)" fill="#46443f"/>
            <path id="패스_191" data-name="패스 191" d="M232.492,97.927a13.454,13.454,0,1,0,13.65,13.455,13.557,13.557,0,0,0-13.65-13.455m0,21.8c-3.075,0-5.577-3.8-5.577-8.491s2.5-8.489,5.577-8.489,5.59,3.792,5.59,8.489-2.51,8.491-5.59,8.491" transform="translate(130.892 58.573)" fill="#46443f"/>
            <rect id="사각형_102" data-name="사각형 102" width="8.064" height="40.775" transform="translate(34.985 153.62)" fill="#46443f"/>
            <path id="패스_192" data-name="패스 192" d="M14.68,96.391a14.959,14.959,0,0,0,0,29.914,14.959,14.959,0,0,0,0-29.914m0,24.429c-3.743,0-6.771-4.229-6.771-9.463,0-5.251,3.028-9.478,6.771-9.478s6.776,4.227,6.776,9.478c0,5.234-3.035,9.463-6.776,9.463" transform="translate(0 57.654)" fill="#46443f"/>
            <path id="패스_193" data-name="패스 193" d="M171.657,96.392a14.321,14.321,0,1,0,14.684,14.326,14.508,14.508,0,0,0-14.684-14.326m0,23.384c-3.743,0-6.771-4.05-6.771-9.058,0-5.026,3.028-9.073,6.771-9.073s6.776,4.047,6.776,9.073c0,5.009-3.035,9.058-6.776,9.058" transform="translate(93.892 57.655)" fill="#46443f"/>
            <rect id="사각형_103" data-name="사각형 103" width="8.058" height="8.387" transform="translate(64.019 170.268)" fill="#46443f"/>
            <rect id="사각형_104" data-name="사각형 104" width="46.338" height="5.16" transform="translate(47.725 177.648)" fill="#46443f"/>
            <path id="패스_194" data-name="패스 194" d="M33.384,97.132v5.176H60.258c-.046,4.235-.5,12.994-1.111,17.391h7.2a156.1,156.1,0,0,0,2.119-22.567Z" transform="translate(19.968 58.097)" fill="#46443f"/>
            <path id="패스_195" data-name="패스 195" d="M103.052,112.118V96.739H95v14.652c0,3.776,2.771,5.9,6.345,5.9h26.663v-5.172Z" transform="translate(56.823 57.862)" fill="#46443f"/>
            <rect id="사각형_105" data-name="사각형 105" width="10.626" height="5.176" transform="translate(276.609 165.804)" fill="#46443f"/>
            <rect id="사각형_106" data-name="사각형 106" width="21.941" height="5.178" transform="translate(265.711 194.665)" fill="#46443f"/>
            <path id="패스_196" data-name="패스 196" d="M171.4,134.464v-16.63h-8.061v15.92c0,3.776,2.771,5.9,6.343,5.9h26.534v-5.191Z" transform="translate(97.699 70.48)" fill="#46443f"/>
            <rect id="사각형_107" data-name="사각형 107" width="8.064" height="31.325" transform="translate(285.852 153.62)" fill="#46443f"/>
            <path id="패스_197" data-name="패스 197" d="M295.521,96.392A14.321,14.321,0,1,0,310.2,110.718a14.508,14.508,0,0,0-14.682-14.326m0,23.384c-3.741,0-6.769-4.05-6.769-9.058,0-5.026,3.028-9.073,6.769-9.073s6.778,4.047,6.778,9.073c0,5.009-3.035,9.058-6.778,9.058" transform="translate(167.979 57.655)" fill="#46443f"/>
            <rect id="사각형_108" data-name="사각형 108" width="8.064" height="19.721" transform="translate(285.852 188.314)" fill="#46443f"/>
            <rect id="사각형_109" data-name="사각형 109" width="10.628" height="5.176" transform="translate(474.559 165.804)" fill="#46443f"/>
            <rect id="사각형_110" data-name="사각형 110" width="8.066" height="31.325" transform="translate(483.803 153.62)" fill="#46443f"/>
            <rect id="사각형_111" data-name="사각형 111" width="8.066" height="40.62" transform="translate(230.934 153.62)" fill="#46443f"/>
            <rect id="사각형_112" data-name="사각형 112" width="10.637" height="5.178" transform="translate(235.718 166.598)" fill="#46443f"/>
            <rect id="사각형_113" data-name="사각형 113" width="8.067" height="40.62" transform="translate(530.582 153.62)" fill="#46443f"/>
            <rect id="사각형_114" data-name="사각형 114" width="10.636" height="5.178" transform="translate(535.367 166.598)" fill="#46443f"/>
            <path id="패스_198" data-name="패스 198" d="M137.349,133.8V118.973H129.3v14.1c0,3.776,2.77,5.9,6.343,5.9H162.3V133.8Z" transform="translate(77.336 71.161)" fill="#46443f"/>
            <path id="패스_199" data-name="패스 199" d="M324.849,133.8V118.973H316.8v14.1c0,3.776,2.771,5.9,6.344,5.9h26.665V133.8Z" transform="translate(189.485 71.161)" fill="#46443f"/>
            <path id="패스_200" data-name="패스 200" d="M135.438,97.035h8.817c-.786,8.758-4.662,21.8-19.414,31.156l-3.243-3.318c8.667-6.907,12.878-16.285,13.84-27.838" transform="translate(72.731 58.04)" fill="#46443f"/>
            <path id="패스_201" data-name="패스 201" d="M131.215,109l13.75,13.7,4.51-5.589L133.194,105.08Z" transform="translate(78.484 62.851)" fill="#46443f"/>
            <rect id="사각형_115" data-name="사각형 115" width="8.063" height="56.513" transform="translate(130.732 153.622)" fill="#46443f"/>
            <path id="패스_202" data-name="패스 202" d="M62.116,97.132v5.181H78.2c-.312,4.369-2.453,16.226-18.973,27.985l3.33,4.118c16.573-10.605,24.114-23.508,25.306-37.284Z" transform="translate(35.424 58.097)" fill="#46443f"/>
            <path id="패스_203" data-name="패스 203" d="M14.335,133.8V118.973H6.284v14.1c0,3.776,2.77,5.9,6.343,5.9H39.29V133.8Z" transform="translate(3.759 71.161)" fill="#46443f"/>
            <path id="패스_204" data-name="패스 204" d="M50.021,116.12c-8.344,0-15.1,5.816-15.1,12.971,0,7.171,6.76,12.983,15.1,12.983s15.091-5.812,15.091-12.983c0-7.155-6.762-12.971-15.091-12.971m0,20.7c-3.845,0-6.955-3.449-6.955-7.727,0-4.257,3.11-7.7,6.955-7.7s6.95,3.441,6.95,7.7c0,4.278-3.11,7.727-6.95,7.727" transform="translate(20.885 69.455)" fill="#46443f"/>
            <path id="패스_205" data-name="패스 205" d="M110.98,116.12c-8.344,0-15.106,5.816-15.106,12.971,0,7.171,6.762,12.983,15.106,12.983s15.091-5.812,15.091-12.983c0-7.155-6.762-12.971-15.091-12.971m0,20.7c-3.845,0-6.955-3.449-6.955-7.727,0-4.257,3.11-7.7,6.955-7.7s6.95,3.441,6.95,7.7c0,4.278-3.112,7.727-6.95,7.727" transform="translate(57.345 69.455)" fill="#46443f"/>
            <path id="패스_206" data-name="패스 206" d="M206.609,116.12c-8.344,0-15.105,5.816-15.105,12.971,0,7.171,6.762,12.983,15.105,12.983s15.091-5.812,15.091-12.983c0-7.155-6.762-12.971-15.091-12.971m0,20.7c-3.845,0-6.955-3.449-6.955-7.727,0-4.257,3.11-7.7,6.955-7.7s6.95,3.441,6.95,7.7c0,4.278-3.112,7.727-6.95,7.727" transform="translate(114.544 69.455)" fill="#46443f"/>
            <rect id="사각형_116" data-name="사각형 116" width="46.338" height="5.16" transform="translate(145.148 178.746)" fill="#46443f"/>
            <path id="패스_207" data-name="패스 207" d="M70.341,112.886,83.39,127.523l4.9-5.252-15.38-13.156Z" transform="translate(42.073 65.266)" fill="#46443f"/>
            <rect id="사각형_117" data-name="사각형 117" width="21.941" height="5.178" transform="translate(362.034 194.665)" fill="#46443f"/>
            <path id="패스_208" data-name="패스 208" d="M231.673,134.464v-16.63h-8.061v15.92c0,3.776,2.771,5.9,6.343,5.9h26.534v-5.191Z" transform="translate(133.749 70.48)" fill="#46443f"/>
            <rect id="사각형_118" data-name="사각형 118" width="8.064" height="19.721" transform="translate(382.173 188.314)" fill="#46443f"/>
            <rect id="사각형_119" data-name="사각형 119" width="21.942" height="5.178" transform="translate(463.66 194.665)" fill="#46443f"/>
            <path id="패스_209" data-name="패스 209" d="M295.266,134.464v-16.63h-8.061v15.92c0,3.776,2.773,5.9,6.343,5.9h26.535v-5.191Z" transform="translate(171.785 70.48)" fill="#46443f"/>
            <rect id="사각형_120" data-name="사각형 120" width="8.066" height="19.721" transform="translate(483.803 188.314)" fill="#46443f"/>
            <rect id="사각형_121" data-name="사각형 121" width="8.067" height="56.513" transform="translate(431.317 153.622)" fill="#46443f"/>
            <rect id="사각형_122" data-name="사각형 122" width="10.636" height="5.178" transform="translate(436.099 166.598)" fill="#46443f"/>
            <path id="패스_210" data-name="패스 210" d="M261.079,97.132H269.9c-.786,9.654-3.151,22.518-18.406,34.182l-3.244-3.655c10.549-9.918,11.871-17.794,12.833-30.527" transform="translate(148.483 58.097)" fill="#46443f"/>
            <path id="패스_211" data-name="패스 211" d="M256.265,110.094l13.589,15.978,4.508-6.159-16.119-14.135Z" transform="translate(153.279 63.269)" fill="#46443f"/>
            <rect id="사각형_123" data-name="사각형 123" width="26.703" height="5.178" transform="translate(498.753 155.229)" fill="#46443f"/>
            <path id="패스_212" data-name="패스 212" d="M320.147,117V99.679h-8.061v16.609c0,3.776,2.771,5.9,6.343,5.9h20.91V117Z" transform="translate(186.667 59.621)" fill="#46443f"/>
            <path id="패스_213" data-name="패스 213" d="M206.245,95.4c-7.808,0-14.142,5.5-14.142,12.3,0,6.774,6.334,12.282,14.142,12.282s14.15-5.507,14.15-12.282c0-6.8-6.346-12.3-14.15-12.3m0,19.395c-3.375,0-6.109-3.185-6.109-7.094,0-3.936,2.734-7.115,6.109-7.115s6.113,3.179,6.113,7.115c0,3.909-2.731,7.094-6.113,7.094" transform="translate(114.902 57.058)" fill="#46443f"/>
            <rect id="사각형_124" data-name="사각형 124" width="46.338" height="5.16" transform="translate(298.511 174.891)" fill="#46443f"/>
            <rect id="사각형_125" data-name="사각형 125" width="8.058" height="13.744" transform="translate(310.406 177.57)" fill="#46443f"/>
            <rect id="사각형_126" data-name="사각형 126" width="8.058" height="13.744" transform="translate(324.899 177.57)" fill="#46443f"/>
        </g>
    </g>
</svg>
